<svg xmlns="http://www.w3.org/2000/svg" xmlns:xlink="http://www.w3.org/1999/xlink" contentStyleType="text/css" height="487px" preserveAspectRatio="none" style="width:870px;height:487px;background:#003153;" version="1.1" viewBox="0 0 870 487" width="870px" zoomAndPan="magnify"><defs/><g><rect fill="#003153" height="487" style="stroke:none;stroke-width:1.0;" width="870" x="0" y="0"/><!--cluster AppVue--><g id="cluster_AppVue"><rect fill="#003153" height="113.3" rx="2.5" ry="2.5" style="stroke:#D9D3D0;stroke-width:1.0;" width="269" x="425" y="12"/><rect fill="#003153" height="10" style="stroke:#D9D3D0;stroke-width:1.0;" width="15" x="674" y="17"/><rect fill="#003153" height="2" style="stroke:#D9D3D0;stroke-width:1.0;" width="4" x="672" y="19"/><rect fill="#003153" height="2" style="stroke:#D9D3D0;stroke-width:1.0;" width="4" x="672" y="23"/><text fill="#D9D3D0" font-family="Verdana" font-size="14" font-weight="bold" lengthAdjust="spacing" textLength="30.8779" x="544.061" y="37.9951">App</text></g><!--cluster TaskListVue--><g id="cluster_TaskListVue"><rect fill="#003153" height="113.29" rx="2.5" ry="2.5" style="stroke:#D9D3D0;stroke-width:1.0;" width="294" x="400" y="190.3"/><rect fill="#003153" height="10" style="stroke:#D9D3D0;stroke-width:1.0;" width="15" x="674" y="195.3"/><rect fill="#003153" height="2" style="stroke:#D9D3D0;stroke-width:1.0;" width="4" x="672" y="197.3"/><rect fill="#003153" height="2" style="stroke:#D9D3D0;stroke-width:1.0;" width="4" x="672" y="201.3"/><text fill="#D9D3D0" font-family="Verdana" font-size="14" font-weight="bold" lengthAdjust="spacing" textLength="65.3857" x="514.3071" y="216.2951">TaskList</text></g><!--cluster TaskItemVue--><g id="cluster_TaskItemVue"><rect fill="#003153" height="113.3" rx="2.5" ry="2.5" style="stroke:#D9D3D0;stroke-width:1.0;" width="543" x="12" y="368.59"/><rect fill="#003153" height="10" style="stroke:#D9D3D0;stroke-width:1.0;" width="15" x="535" y="373.59"/><rect fill="#003153" height="2" style="stroke:#D9D3D0;stroke-width:1.0;" width="4" x="533" y="375.59"/><rect fill="#003153" height="2" style="stroke:#D9D3D0;stroke-width:1.0;" width="4" x="533" y="379.59"/><text fill="#D9D3D0" font-family="Verdana" font-size="14" font-weight="bold" lengthAdjust="spacing" textLength="72.625" x="247.1875" y="394.5851">TaskItem</text></g><!--cluster FilterTasksVue--><g id="cluster_FilterTasksVue"><rect fill="#003153" height="113.3" rx="2.5" ry="2.5" style="stroke:#D9D3D0;stroke-width:1.0;" width="220" x="595" y="368.59"/><rect fill="#003153" height="10" style="stroke:#D9D3D0;stroke-width:1.0;" width="15" x="795" y="373.59"/><rect fill="#003153" height="2" style="stroke:#D9D3D0;stroke-width:1.0;" width="4" x="793" y="375.59"/><rect fill="#003153" height="2" style="stroke:#D9D3D0;stroke-width:1.0;" width="4" x="793" y="379.59"/><text fill="#D9D3D0" font-family="Verdana" font-size="14" font-weight="bold" lengthAdjust="spacing" textLength="87.2266" x="661.3867" y="394.5851">FilterTasks</text></g><!--entity Estado Global (tarefas)--><g id="elem_Estado Global (tarefas)"><rect fill="#003153" height="46.2969" rx="2.5" ry="2.5" style="stroke:#D9D3D0;stroke-width:1.0;" width="201.3828" x="449.31" y="55"/><rect fill="#003153" height="10" style="stroke:#D9D3D0;stroke-width:1.0;" width="15" x="630.6928" y="60"/><rect fill="#003153" height="2" style="stroke:#D9D3D0;stroke-width:1.0;" width="4" x="628.6928" y="62"/><rect fill="#003153" height="2" style="stroke:#D9D3D0;stroke-width:1.0;" width="4" x="628.6928" y="66"/><text fill="#D9D3D0" font-family="Verdana" font-size="14" lengthAdjust="spacing" textLength="161.3828" x="464.31" y="87.9951">Estado Global (tarefas)</text></g><!--entity Renderiza Lista de Tarefas--><g id="elem_Renderiza Lista de Tarefas"><rect fill="#003153" height="46.2969" rx="2.5" ry="2.5" style="stroke:#D9D3D0;stroke-width:1.0;" width="226.4912" x="423.75" y="233.3"/><rect fill="#003153" height="10" style="stroke:#D9D3D0;stroke-width:1.0;" width="15" x="630.2412" y="238.3"/><rect fill="#003153" height="2" style="stroke:#D9D3D0;stroke-width:1.0;" width="4" x="628.2412" y="240.3"/><rect fill="#003153" height="2" style="stroke:#D9D3D0;stroke-width:1.0;" width="4" x="628.2412" y="244.3"/><text fill="#D9D3D0" font-family="Verdana" font-size="14" lengthAdjust="spacing" textLength="186.4912" x="438.75" y="266.2951">Renderiza Lista de Tarefas</text></g><!--entity Representa uma Tarefa--><g id="elem_Representa uma Tarefa"><rect fill="#003153" height="46.2969" rx="2.5" ry="2.5" style="stroke:#D9D3D0;stroke-width:1.0;" width="205.4434" x="36.28" y="411.59"/><rect fill="#003153" height="10" style="stroke:#D9D3D0;stroke-width:1.0;" width="15" x="221.7234" y="416.59"/><rect fill="#003153" height="2" style="stroke:#D9D3D0;stroke-width:1.0;" width="4" x="219.7234" y="418.59"/><rect fill="#003153" height="2" style="stroke:#D9D3D0;stroke-width:1.0;" width="4" x="219.7234" y="422.59"/><text fill="#D9D3D0" font-family="Verdana" font-size="14" lengthAdjust="spacing" textLength="165.4434" x="51.28" y="444.5851">Representa uma Tarefa</text></g><!--entity Bot?es: Concluir e Remover--><g id="elem_Bot&#245;es: Concluir e Remover"><rect fill="#003153" height="46.2969" rx="2.5" ry="2.5" style="stroke:#D9D3D0;stroke-width:1.0;" width="235.3301" x="276.33" y="411.59"/><rect fill="#003153" height="10" style="stroke:#D9D3D0;stroke-width:1.0;" width="15" x="491.6601" y="416.59"/><rect fill="#003153" height="2" style="stroke:#D9D3D0;stroke-width:1.0;" width="4" x="489.6601" y="418.59"/><rect fill="#003153" height="2" style="stroke:#D9D3D0;stroke-width:1.0;" width="4" x="489.6601" y="422.59"/><text fill="#D9D3D0" font-family="Verdana" font-size="14" lengthAdjust="spacing" textLength="195.3301" x="291.33" y="444.5851">Bot&#245;es: Concluir e Remover</text></g><!--entity Filtra as Tarefas--><g id="elem_Filtra as Tarefas"><rect fill="#003153" height="46.2969" rx="2.5" ry="2.5" style="stroke:#D9D3D0;stroke-width:1.0;" width="152.7314" x="618.63" y="411.59"/><rect fill="#003153" height="10" style="stroke:#D9D3D0;stroke-width:1.0;" width="15" x="751.3614" y="416.59"/><rect fill="#003153" height="2" style="stroke:#D9D3D0;stroke-width:1.0;" width="4" x="749.3614" y="418.59"/><rect fill="#003153" height="2" style="stroke:#D9D3D0;stroke-width:1.0;" width="4" x="749.3614" y="422.59"/><text fill="#D9D3D0" font-family="Verdana" font-size="14" lengthAdjust="spacing" textLength="112.7314" x="633.63" y="444.5851">Filtra as Tarefas</text></g><!--link AppVue to TaskListVue--><g id="link_AppVue_TaskListVue"><path d="M686,125.8058 C686,126.1042 686,126.4033 686,126.7033 C686,127.3033 686,127.9064 686,128.5126 C686,130.9375 686,133.4112 686,135.9241 C686,145.9756 686,156.6531 686,167.33 C686,172.6684 686,178.0067 686,183.2665 C686,184.5815 686,185.8915 686,187.1954 C686,187.8474 686,188.4978 686,189.1466 C686,189.4709 686,183.7949 686,184.1184 " fill="none" id="AppVue-to-TaskListVue" style="stroke:#D9D3D0;stroke-width:1.0;"/><polygon fill="#D9D3D0" points="686,190.1184,690,181.1184,686,185.1184,682,181.1184,686,190.1184" style="stroke:#D9D3D0;stroke-width:1.0;"/><text fill="#D9D3D0" font-family="Verdana" font-size="13" lengthAdjust="spacing" textLength="162.4175" x="687" y="162.3669">Gerencia o estado global</text></g><!--link TaskListVue to TaskItemVue--><g id="link_TaskListVue_TaskItemVue"><path d="M677.5768,303.7332 C677.3885,304.134 677.196,304.5327 676.9993,304.9292 C676.6059,305.722 676.1956,306.5057 675.7675,307.2784 C674.9115,308.8237 673.9849,310.3249 672.9818,311.767 C670.9756,314.6511 668.6637,317.2987 666,319.59 C649.28,333.99 635.52,315.6 617,327.59 C593.655,342.715 576.3325,368.6675 564.76,391.125 C561.8669,396.7394 559.3331,402.1353 557.1545,407.089 C556.6098,408.3275 556.0874,409.5382 555.587,410.7179 C555.462,411.0128 555.3383,411.3058 555.2159,411.5967 C555.1548,411.7422 557.4105,406.3524 557.35,406.4969 " fill="none" id="TaskListVue-to-TaskItemVue" style="stroke:#D9D3D0;stroke-width:1.0;"/><polygon fill="#D9D3D0" points="555.0335,412.0317,562.1981,405.2738,556.9639,407.4194,554.8184,402.1852,555.0335,412.0317" style="stroke:#D9D3D0;stroke-width:1.0;"/><text fill="#D9D3D0" font-family="Verdana" font-size="13" lengthAdjust="spacing" textLength="142.5303" x="618" y="340.6569">Exibe dados da tarefa</text></g><!--link TaskListVue to FilterTasksVue--><g id="link_TaskListVue_FilterTasksVue"><path d="M694.0878,262.6056 C694.2752,262.7293 694.4654,262.8552 694.6584,262.9832 C695.0443,263.2392 695.4412,263.5035 695.8486,263.776 C696.6636,264.3211 697.5209,264.8992 698.4175,265.5094 C705.59,270.3906 715.2725,277.325 725.845,285.8575 C746.99,302.9225 771.695,326.38 787,352.59 C789.2675,356.475 791.2791,360.6091 793.0634,364.8749 C793.5095,365.9414 793.9414,367.0161 794.3596,368.0972 C794.4118,368.2323 792.3177,362.7645 792.3695,362.8999 " fill="none" id="TaskListVue-to-FilterTasksVue" style="stroke:#D9D3D0;stroke-width:1.0;"/><polygon fill="#D9D3D0" points="794.5157,368.5029,795.0317,358.6675,792.7272,363.8337,787.5611,361.5292,794.5157,368.5029" style="stroke:#D9D3D0;stroke-width:1.0;"/><text fill="#D9D3D0" font-family="Verdana" font-size="13" lengthAdjust="spacing" textLength="80.5835" x="782" y="340.6569">Aplica filtros</text></g><!--SRC=[RL4xJWCn5EnzYg638XVO0WbGY92e8aI3KhpTdO25VxAz284u5YVWOjZPR5W2ZJ_FC_FcZK_o4otHce4XQfTLvstmZYxZ8WH8gjlzGBmhu66PilGUA-DRCJZD4hcLTBPH7sf6l9FqVAjJhkpfV91Oq_MC-arGouAU1REJ-KVb9jDEAlKyKmcHgS04WvMzmgQ-NFhyzSdKuCgxpWmwWbZJ-XV6emRNscJ6AfrgZzdrqARMeemEVZpk4raipd-Drs35IDTfWGV7f1vtIQavRA9DypHOlkgMw0i-bHLZgdyuH_wQyZ56Tu9jzUZJDm00]--></g></svg>