<svg xmlns="http://www.w3.org/2000/svg" xmlns:xlink="http://www.w3.org/1999/xlink" contentStyleType="text/css" height="274px" preserveAspectRatio="none" style="width:722px;height:274px;background:#003153;" version="1.1" viewBox="0 0 722 274" width="722px" zoomAndPan="magnify"><defs/><g><rect fill="#003153" height="274" style="stroke:none;stroke-width:1.0;" width="722" x="0" y="0"/><line style="stroke:#D9D3D0;stroke-width:1.0;" x1="99" x2="99" y1="69.5938" y2="206.125"/><line style="stroke:#D9D3D0;stroke-width:1.0;" x1="329.1484" x2="329.1484" y1="69.5938" y2="206.125"/><line style="stroke:#D9D3D0;stroke-width:1.0;" x1="512.6826" x2="512.6826" y1="69.5938" y2="206.125"/><line style="stroke:#D9D3D0;stroke-width:1.0;" x1="655.0068" x2="655.0068" y1="69.5938" y2="206.125"/><text fill="#D9D3D0" font-family="Verdana" font-size="14" lengthAdjust="spacing" textLength="57.5723" x="68.1875" y="49.9951">App.vue</text><text fill="#D9D3D0" font-family="Verdana" font-size="14" lengthAdjust="spacing" textLength="173.9473" x="10" y="66.292">(Estado Global - Tarefas)</text><ellipse cx="99.9736" cy="21" fill="#003153" rx="12" ry="12" style="stroke:#D9D3D0;stroke-width:1.0;"/><line style="stroke:#D9D3D0;stroke-width:1.0;" x1="87.9736" x2="111.9736" y1="35" y2="35"/><text fill="#D9D3D0" font-family="Verdana" font-size="14" lengthAdjust="spacing" textLength="57.5723" x="68.1875" y="218.1201">App.vue</text><text fill="#D9D3D0" font-family="Verdana" font-size="14" lengthAdjust="spacing" textLength="173.9473" x="10" y="234.417">(Estado Global - Tarefas)</text><ellipse cx="99.9736" cy="253.7188" fill="#003153" rx="12" ry="12" style="stroke:#D9D3D0;stroke-width:1.0;"/><line style="stroke:#D9D3D0;stroke-width:1.0;" x1="87.9736" x2="111.9736" y1="267.7188" y2="267.7188"/><text fill="#D9D3D0" font-family="Verdana" font-size="14" lengthAdjust="spacing" textLength="87.2266" x="282.8022" y="49.9951">TaskList.vue</text><text fill="#D9D3D0" font-family="Verdana" font-size="14" lengthAdjust="spacing" textLength="206.5342" x="223.1484" y="66.292">(Renderiza a lista de Tarefas)</text><ellipse cx="329.4155" cy="21" fill="#003153" rx="12" ry="12" style="stroke:#D9D3D0;stroke-width:1.0;"/><line style="stroke:#D9D3D0;stroke-width:1.0;" x1="317.4155" x2="341.4155" y1="35" y2="35"/><text fill="#D9D3D0" font-family="Verdana" font-size="14" lengthAdjust="spacing" textLength="87.2266" x="282.8022" y="218.1201">TaskList.vue</text><text fill="#D9D3D0" font-family="Verdana" font-size="14" lengthAdjust="spacing" textLength="206.5342" x="223.1484" y="234.417">(Renderiza a lista de Tarefas)</text><ellipse cx="329.4155" cy="253.7188" fill="#003153" rx="12" ry="12" style="stroke:#D9D3D0;stroke-width:1.0;"/><line style="stroke:#D9D3D0;stroke-width:1.0;" x1="317.4155" x2="341.4155" y1="267.7188" y2="267.7188"/><text fill="#D9D3D0" font-family="Verdana" font-size="14" lengthAdjust="spacing" textLength="94.623" x="462.5332" y="49.9951">TaskItem.vue</text><text fill="#D9D3D0" font-family="Verdana" font-size="14" lengthAdjust="spacing" textLength="128.3242" x="445.6826" y="66.292">(Tarefa individual)</text><ellipse cx="512.8447" cy="21" fill="#003153" rx="12" ry="12" style="stroke:#D9D3D0;stroke-width:1.0;"/><line style="stroke:#D9D3D0;stroke-width:1.0;" x1="500.8447" x2="524.8447" y1="35" y2="35"/><text fill="#D9D3D0" font-family="Verdana" font-size="14" lengthAdjust="spacing" textLength="94.623" x="462.5332" y="218.1201">TaskItem.vue</text><text fill="#D9D3D0" font-family="Verdana" font-size="14" lengthAdjust="spacing" textLength="128.3242" x="445.6826" y="234.417">(Tarefa individual)</text><ellipse cx="512.8447" cy="253.7188" fill="#003153" rx="12" ry="12" style="stroke:#D9D3D0;stroke-width:1.0;"/><line style="stroke:#D9D3D0;stroke-width:1.0;" x1="500.8447" x2="524.8447" y1="267.7188" y2="267.7188"/><text fill="#D9D3D0" font-family="Verdana" font-size="14" lengthAdjust="spacing" textLength="105.7383" x="599.772" y="49.9951">FilterTasks.vue</text><text fill="#D9D3D0" font-family="Verdana" font-size="14" lengthAdjust="spacing" textLength="125.2686" x="590.0068" y="66.292">(Filtro de Tarefas)</text><ellipse cx="655.6411" cy="21" fill="#003153" rx="12" ry="12" style="stroke:#D9D3D0;stroke-width:1.0;"/><line style="stroke:#D9D3D0;stroke-width:1.0;" x1="643.6411" x2="667.6411" y1="35" y2="35"/><text fill="#D9D3D0" font-family="Verdana" font-size="14" lengthAdjust="spacing" textLength="105.7383" x="599.772" y="218.1201">FilterTasks.vue</text><text fill="#D9D3D0" font-family="Verdana" font-size="14" lengthAdjust="spacing" textLength="125.2686" x="590.0068" y="234.417">(Filtro de Tarefas)</text><ellipse cx="655.6411" cy="253.7188" fill="#003153" rx="12" ry="12" style="stroke:#D9D3D0;stroke-width:1.0;"/><line style="stroke:#D9D3D0;stroke-width:1.0;" x1="643.6411" x2="667.6411" y1="267.7188" y2="267.7188"/><polygon fill="#D9D3D0" points="317.4155,96.7266,327.4155,100.7266,317.4155,104.7266,321.4155,100.7266" style="stroke:#D9D3D0;stroke-width:1.0;"/><line style="stroke:#D9D3D0;stroke-width:1.0;stroke-dasharray:2.0,2.0;" x1="99.9736" x2="323.4155" y1="100.7266" y2="100.7266"/><text fill="#D9D3D0" font-family="Verdana" font-size="13" lengthAdjust="spacing" textLength="101.6006" x="106.9736" y="95.6606">Adiciona Tarefa</text><polygon fill="#D9D3D0" points="110.9736,125.8594,100.9736,129.8594,110.9736,133.8594,106.9736,129.8594" style="stroke:#D9D3D0;stroke-width:1.0;"/><line style="stroke:#D9D3D0;stroke-width:1.0;stroke-dasharray:2.0,2.0;" x1="104.9736" x2="328.4155" y1="129.8594" y2="129.8594"/><text fill="#D9D3D0" font-family="Verdana" font-size="13" lengthAdjust="spacing" textLength="205.4419" x="116.9736" y="124.7935">Marca como Conclu&#237;da/Remove</text><polygon fill="#D9D3D0" points="340.4155,154.9922,330.4155,158.9922,340.4155,162.9922,336.4155,158.9922" style="stroke:#D9D3D0;stroke-width:1.0;"/><line style="stroke:#D9D3D0;stroke-width:1.0;stroke-dasharray:2.0,2.0;" x1="334.4155" x2="654.6411" y1="158.9922" y2="158.9922"/><text fill="#D9D3D0" font-family="Verdana" font-size="13" lengthAdjust="spacing" textLength="76.7114" x="346.4155" y="153.9263">Aplica Filtro</text><polygon fill="#D9D3D0" points="500.8447,184.125,510.8447,188.125,500.8447,192.125,504.8447,188.125" style="stroke:#D9D3D0;stroke-width:1.0;"/><line style="stroke:#D9D3D0;stroke-width:1.0;stroke-dasharray:2.0,2.0;" x1="329.4155" x2="506.8447" y1="188.125" y2="188.125"/><text fill="#D9D3D0" font-family="Verdana" font-size="13" lengthAdjust="spacing" textLength="88.4673" x="336.4155" y="183.0591">Exibe Tarefas</text><!--SRC=[PO-nRi8m54LtVyKjKndIxWoL4AAeKhiWnYulyKCyuTYHxKHj_wbVmOzXYs28MA_FkRxlAHwuPTIcvywBZOfjbFYBsRBhNeQUl-tpEaJI3XlZQZAei2FFUmhp6IWWOKNPKJX-IeYZjsMhsSiVWM1IJD0ybQ_2fE4ZSZisN628rJA8xidSj4mLxLrCP9_ZC9evyUxXmpjGgJGTLVLMLc21fPP6dANHKkKfSvbVu8jyGsXSwx1ojZ7zwL_JwvPRDx2wwt-exemayJ9iMdoz9r7h7wdBvZC0]--></g></svg>